<?xml version="1.0" encoding="UTF-8"?>
<svg width="100" height="100" viewBox="0 0 100 100" xmlns="http://www.w3.org/2000/svg">
  <defs>
    <pattern id="seigaiha" x="0" y="0" width="50" height="50" patternUnits="userSpaceOnUse">
      <path d="M25,0 C25,13.8 13.8,25 0,25 C13.8,25 25,36.2 25,50 C25,36.2 36.2,25 50,25 C36.2,25 25,13.8 25,0" 
            fill="none" 
            stroke="rgba(220, 215, 186, 0.03)" 
            stroke-width="1"/>
      <path d="M25,0 C25,13.8 13.8,25 0,25 C13.8,25 25,36.2 25,50 C25,36.2 36.2,25 50,25 C36.2,25 25,13.8 25,0" 
            transform="translate(50,0)" 
            fill="none" 
            stroke="rgba(220, 215, 186, 0.03)" 
            stroke-width="1"/>
      <path d="M25,0 C25,13.8 13.8,25 0,25 C13.8,25 25,36.2 25,50 C25,36.2 36.2,25 50,25 C36.2,25 25,13.8 25,0" 
            transform="translate(0,50)" 
            fill="none" 
            stroke="rgba(220, 215, 186, 0.03)" 
            stroke-width="1"/>
      <path d="M25,0 C25,13.8 13.8,25 0,25 C13.8,25 25,36.2 25,50 C25,36.2 36.2,25 50,25 C36.2,25 25,13.8 25,0" 
            transform="translate(50,50)" 
            fill="none" 
            stroke="rgba(220, 215, 186, 0.03)" 
            stroke-width="1"/>
    </pattern>
  </defs>
  <rect x="0" y="0" width="100" height="100" fill="url(#seigaiha)"/>
</svg> 